<?xml version="1.0" encoding="UTF-8" standalone="no"?>
<!DOCTYPE svg PUBLIC "-//W3C//DTD SVG 1.1//EN"
 "http://www.w3.org/Graphics/SVG/1.1/DTD/svg11.dtd">
<!-- Generated by graphviz version 2.47.3 (20210619.1520)
 -->
<!-- Title: dependencies Pages: 1 -->
<svg width="310pt" height="174pt"
 viewBox="0.00 0.00 310.00 173.80" xmlns="http://www.w3.org/2000/svg" xmlns:xlink="http://www.w3.org/1999/xlink">
<g id="graph0" class="graph" transform="scale(1 1) rotate(0) translate(4 169.8)">
<title>dependencies</title>
<polygon fill="white" stroke="transparent" points="-4,4 -4,-169.8 306,-169.8 306,4 -4,4"/>
<text text-anchor="middle" x="151" y="-8.2" font-family="sans-serif" font-size="14.00">dependencies</text>
<g id="clust1" class="cluster">
<title>cluster_TrackModule</title>
<polygon fill="none" stroke="black" stroke-dasharray="1,5" points="8,-32.8 8,-157.8 294,-157.8 294,-32.8 8,-32.8"/>
</g>
<g id="clust6" class="cluster">
<title>cluster_TrackModule_providers</title>
<polygon fill="none" stroke="black" points="16,-40.8 16,-92.8 286,-92.8 286,-40.8 16,-40.8"/>
</g>
<!-- FileService -->
<g id="node1" class="node">
<title>FileService</title>
<ellipse fill="#fdb462" stroke="black" cx="223" cy="-66.8" rx="55.03" ry="18"/>
<text text-anchor="middle" x="223" y="-62.6" font-family="Times,serif" font-size="14.00">FileService</text>
</g>
<!-- TrackModule -->
<g id="node3" class="node">
<title>TrackModule</title>
<polygon fill="#8dd3c7" stroke="black" points="201.19,-149.8 198.19,-153.8 177.19,-153.8 174.19,-149.8 108.81,-149.8 108.81,-113.8 201.19,-113.8 201.19,-149.8"/>
<text text-anchor="middle" x="155" y="-127.6" font-family="Times,serif" font-size="14.00">TrackModule</text>
</g>
<!-- FileService&#45;&gt;TrackModule -->
<g id="edge1" class="edge">
<title>FileService&#45;&gt;TrackModule</title>
<path fill="none" stroke="black" d="M184.54,-79.95C184.54,-79.95 184.54,-103.49 184.54,-103.49"/>
<polygon fill="black" stroke="black" points="181.04,-103.49 184.54,-113.49 188.04,-103.49 181.04,-103.49"/>
</g>
<!-- TrackService -->
<g id="node2" class="node">
<title>TrackService</title>
<ellipse fill="#fdb462" stroke="black" cx="87" cy="-66.8" rx="62.52" ry="18"/>
<text text-anchor="middle" x="87" y="-62.6" font-family="Times,serif" font-size="14.00">TrackService</text>
</g>
<!-- TrackService&#45;&gt;TrackModule -->
<g id="edge2" class="edge">
<title>TrackService&#45;&gt;TrackModule</title>
<path fill="none" stroke="black" d="M129.21,-80.27C129.21,-80.27 129.21,-103.66 129.21,-103.66"/>
<polygon fill="black" stroke="black" points="125.71,-103.66 129.21,-113.66 132.71,-103.66 125.71,-103.66"/>
</g>
</g>
</svg>
