<?xml version="1.0" encoding="UTF-8" standalone="no"?>
<!DOCTYPE svg PUBLIC "-//W3C//DTD SVG 1.1//EN"
 "http://www.w3.org/Graphics/SVG/1.1/DTD/svg11.dtd">
<!-- Generated by graphviz version 2.47.3 (20210619.1520)
 -->
<!-- Title: dependencies Pages: 1 -->
<svg width="248pt" height="174pt"
 viewBox="0.00 0.00 248.00 173.80" xmlns="http://www.w3.org/2000/svg" xmlns:xlink="http://www.w3.org/1999/xlink">
<g id="graph0" class="graph" transform="scale(1 1) rotate(0) translate(4 169.8)">
<title>dependencies</title>
<polygon fill="white" stroke="transparent" points="-4,4 -4,-169.8 244,-169.8 244,4 -4,4"/>
<text text-anchor="middle" x="120" y="-8.2" font-family="sans-serif" font-size="14.00">dependencies</text>
<g id="clust1" class="cluster">
<title>cluster_AppModule</title>
<polygon fill="none" stroke="black" stroke-dasharray="1,5" points="8,-32.8 8,-157.8 232,-157.8 232,-32.8 8,-32.8"/>
</g>
<g id="clust3" class="cluster">
<title>cluster_AppModule_imports</title>
<polygon fill="none" stroke="black" points="16,-40.8 16,-92.8 224,-92.8 224,-40.8 16,-40.8"/>
</g>
<!-- FileModule -->
<g id="node1" class="node">
<title>FileModule</title>
<polygon fill="#8dd3c7" stroke="black" points="215.83,-84.8 212.83,-88.8 191.83,-88.8 188.83,-84.8 134.17,-84.8 134.17,-48.8 215.83,-48.8 215.83,-84.8"/>
<text text-anchor="middle" x="175" y="-62.6" font-family="Times,serif" font-size="14.00">FileModule</text>
</g>
<!-- AppModule -->
<g id="node3" class="node">
<title>AppModule</title>
<polygon fill="#8dd3c7" stroke="black" points="163.66,-149.8 160.66,-153.8 139.66,-153.8 136.66,-149.8 80.34,-149.8 80.34,-113.8 163.66,-113.8 163.66,-149.8"/>
<text text-anchor="middle" x="122" y="-127.6" font-family="Times,serif" font-size="14.00">AppModule</text>
</g>
<!-- FileModule&#45;&gt;AppModule -->
<g id="edge1" class="edge">
<title>FileModule&#45;&gt;AppModule</title>
<path fill="none" stroke="black" d="M149.08,-84.91C149.08,-84.91 149.08,-103.79 149.08,-103.79"/>
<polygon fill="black" stroke="black" points="145.58,-103.79 149.08,-113.79 152.58,-103.79 145.58,-103.79"/>
</g>
<!-- TrackModule -->
<g id="node2" class="node">
<title>TrackModule</title>
<polygon fill="#8dd3c7" stroke="black" points="116.19,-84.8 113.19,-88.8 92.19,-88.8 89.19,-84.8 23.81,-84.8 23.81,-48.8 116.19,-48.8 116.19,-84.8"/>
<text text-anchor="middle" x="70" y="-62.6" font-family="Times,serif" font-size="14.00">TrackModule</text>
</g>
<!-- TrackModule&#45;&gt;AppModule -->
<g id="edge2" class="edge">
<title>TrackModule&#45;&gt;AppModule</title>
<path fill="none" stroke="black" d="M98.13,-84.91C98.13,-84.91 98.13,-103.79 98.13,-103.79"/>
<polygon fill="black" stroke="black" points="94.63,-103.79 98.13,-113.79 101.63,-103.79 94.63,-103.79"/>
</g>
</g>
</svg>
