<?xml version="1.0" encoding="UTF-8" standalone="no"?>
<!DOCTYPE svg PUBLIC "-//W3C//DTD SVG 1.1//EN"
 "http://www.w3.org/Graphics/SVG/1.1/DTD/svg11.dtd">
<!-- Generated by graphviz version 2.47.3 (20210619.1520)
 -->
<!-- Title: dependencies Pages: 1 -->
<svg width="332pt" height="250pt"
 viewBox="0.00 0.00 332.00 249.80" xmlns="http://www.w3.org/2000/svg" xmlns:xlink="http://www.w3.org/1999/xlink">
<g id="graph0" class="graph" transform="scale(1 1) rotate(0) translate(4 245.8)">
<title>dependencies</title>
<polygon fill="white" stroke="transparent" points="-4,4 -4,-245.8 328,-245.8 328,4 -4,4"/>
<text text-anchor="middle" x="162" y="-8.2" font-family="sans-serif" font-size="14.00">dependencies</text>
<g id="clust1" class="cluster">
<title>cluster_AppModule</title>
<polygon fill="none" stroke="black" stroke-dasharray="1,5" points="22,-108.8 22,-233.8 246,-233.8 246,-108.8 22,-108.8"/>
</g>
<g id="clust3" class="cluster">
<title>cluster_AppModule_imports</title>
<polygon fill="none" stroke="black" points="30,-116.8 30,-168.8 238,-168.8 238,-116.8 30,-116.8"/>
</g>
<g id="clust7" class="cluster">
<title>cluster_FileModule</title>
<polygon fill="none" stroke="black" stroke-dasharray="1,5" points="8,-32.8 8,-100.8 150,-100.8 150,-32.8 8,-32.8"/>
</g>
<g id="clust12" class="cluster">
<title>cluster_FileModule_providers</title>
<polygon fill="none" stroke="black" points="16,-40.8 16,-92.8 142,-92.8 142,-40.8 16,-40.8"/>
</g>
<g id="clust13" class="cluster">
<title>cluster_TrackModule</title>
<polygon fill="none" stroke="black" stroke-dasharray="1,5" points="158,-32.8 158,-100.8 316,-100.8 316,-32.8 158,-32.8"/>
</g>
<g id="clust18" class="cluster">
<title>cluster_TrackModule_providers</title>
<polygon fill="none" stroke="black" points="166,-40.8 166,-92.8 308,-92.8 308,-40.8 166,-40.8"/>
</g>
<!-- FileModule -->
<g id="node1" class="node">
<title>FileModule</title>
<polygon fill="#8dd3c7" stroke="black" points="119.83,-160.8 116.83,-164.8 95.83,-164.8 92.83,-160.8 38.17,-160.8 38.17,-124.8 119.83,-124.8 119.83,-160.8"/>
<text text-anchor="middle" x="79" y="-138.6" font-family="Times,serif" font-size="14.00">FileModule</text>
</g>
<!-- AppModule -->
<g id="node3" class="node">
<title>AppModule</title>
<polygon fill="#8dd3c7" stroke="black" points="172.66,-225.8 169.66,-229.8 148.66,-229.8 145.66,-225.8 89.34,-225.8 89.34,-189.8 172.66,-189.8 172.66,-225.8"/>
<text text-anchor="middle" x="131" y="-203.6" font-family="Times,serif" font-size="14.00">AppModule</text>
</g>
<!-- FileModule&#45;&gt;AppModule -->
<g id="edge1" class="edge">
<title>FileModule&#45;&gt;AppModule</title>
<path fill="none" stroke="black" d="M104.42,-160.91C104.42,-160.91 104.42,-179.79 104.42,-179.79"/>
<polygon fill="black" stroke="black" points="100.92,-179.79 104.42,-189.79 107.92,-179.79 100.92,-179.79"/>
</g>
<!-- TrackModule -->
<g id="node2" class="node">
<title>TrackModule</title>
<polygon fill="#8dd3c7" stroke="black" points="230.19,-160.8 227.19,-164.8 206.19,-164.8 203.19,-160.8 137.81,-160.8 137.81,-124.8 230.19,-124.8 230.19,-160.8"/>
<text text-anchor="middle" x="184" y="-138.6" font-family="Times,serif" font-size="14.00">TrackModule</text>
</g>
<!-- TrackModule&#45;&gt;AppModule -->
<g id="edge2" class="edge">
<title>TrackModule&#45;&gt;AppModule</title>
<path fill="none" stroke="black" d="M155.37,-160.91C155.37,-160.91 155.37,-179.79 155.37,-179.79"/>
<polygon fill="black" stroke="black" points="151.87,-179.79 155.37,-189.79 158.87,-179.79 151.87,-179.79"/>
</g>
<!-- FileService -->
<g id="node4" class="node">
<title>FileService</title>
<ellipse fill="#fdb462" stroke="black" cx="79" cy="-66.8" rx="55.03" ry="18"/>
<text text-anchor="middle" x="79" y="-62.6" font-family="Times,serif" font-size="14.00">FileService</text>
</g>
<!-- FileService&#45;&gt;FileModule -->
<g id="edge3" class="edge">
<title>FileService&#45;&gt;FileModule</title>
<path fill="none" stroke="black" d="M79,-84.81C79,-84.81 79,-114.65 79,-114.65"/>
<polygon fill="black" stroke="black" points="75.5,-114.65 79,-124.65 82.5,-114.65 75.5,-114.65"/>
</g>
<!-- FileService&#45;&gt;TrackModule -->
<g id="edge4" class="edge">
<title>FileService&#45;&gt;TrackModule</title>
<path fill="none" stroke="black" d="M126.84,-75.82C126.84,-95.95 126.84,-142.8 126.84,-142.8 126.84,-142.8 127.94,-142.8 127.94,-142.8"/>
<polygon fill="black" stroke="black" points="127.86,-146.3 137.86,-142.8 127.86,-139.3 127.86,-146.3"/>
</g>
<!-- TrackService -->
<g id="node5" class="node">
<title>TrackService</title>
<ellipse fill="#fdb462" stroke="black" cx="237" cy="-66.8" rx="62.52" ry="18"/>
<text text-anchor="middle" x="237" y="-62.6" font-family="Times,serif" font-size="14.00">TrackService</text>
</g>
<!-- TrackService&#45;&gt;TrackModule -->
<g id="edge5" class="edge">
<title>TrackService&#45;&gt;TrackModule</title>
<path fill="none" stroke="black" d="M202.29,-81.82C202.29,-81.82 202.29,-114.6 202.29,-114.6"/>
<polygon fill="black" stroke="black" points="198.79,-114.6 202.29,-124.6 205.79,-114.6 198.79,-114.6"/>
</g>
</g>
</svg>
